# This file uses centimeters as units for non-parametric coordinates.

mtllib Godray2.mtl
g default
v 2.725371 0.023958 5.551612
v 2.355413 0.023958 4.783386
v 1.775453 0.023958 4.158337
v 1.037023 0.023958 3.732003
v 0.205734 0.023958 3.542267
v -0.644548 0.023958 3.605987
v -1.438273 0.023958 3.917500
v -2.104914 0.023958 4.449129
v -2.585239 0.023958 5.153635
v -2.836567 0.023958 5.968420
v -2.836567 0.023958 6.821086
v -2.585239 0.023958 7.635871
v -2.104916 0.023958 8.340377
v -1.438274 0.023958 8.872006
v -0.644549 0.023958 9.183520
v 0.205733 0.023958 9.247240
v 1.037021 0.023958 9.057505
v 1.775452 0.023958 8.631171
v 2.355413 0.023958 8.006122
v 2.725371 0.023958 7.237897
v 2.852454 0.023958 6.394754
v 0.463078 9.862203 6.253538
v 0.401114 9.862203 6.124870
v 0.303978 9.862203 6.020183
v 0.180301 9.862203 5.948778
v 0.041071 9.862203 5.916999
v -0.101340 9.862203 5.927672
v -0.234279 9.862203 5.979846
v -0.345932 9.862203 6.068887
v -0.426381 9.862203 6.186882
v -0.468475 9.862203 6.323348
v -0.468475 9.862203 6.466159
v -0.426381 9.862203 6.602625
v -0.345933 9.862203 6.720620
v -0.234279 9.862203 6.809661
v -0.101340 9.862203 6.861836
v 0.041071 9.862203 6.872508
v 0.180301 9.862203 6.840730
v 0.303978 9.862203 6.769325
v 0.401114 9.862203 6.664637
v 0.463078 9.862203 6.535969
v 0.484362 9.862203 6.394754
vt 0.893366 0.902049
vt 0.851959 0.902050
vt 0.851947 0.068604
vt 0.893353 0.068603
vt 0.810553 0.902050
vt 0.810540 0.068604
vt 0.769147 0.902051
vt 0.769134 0.068605
vt 0.727741 0.902052
vt 0.727728 0.068606
vt 0.686334 0.902052
vt 0.686322 0.068606
vt 0.644928 0.902053
vt 0.644916 0.068607
vt 0.603522 0.902054
vt 0.603509 0.068608
vt 0.562116 0.902054
vt 0.562103 0.068608
vt 0.520710 0.902055
vt 0.520697 0.068609
vt 0.479303 0.902056
vt 0.479291 0.068609
vt 0.437897 0.902056
vt 0.437884 0.068610
vt 0.396491 0.902057
vt 0.396478 0.068611
vt 0.355085 0.902057
vt 0.355072 0.068611
vt 0.313678 0.902058
vt 0.313666 0.068612
vt 0.272272 0.902059
vt 0.272260 0.068613
vt 0.230866 0.902059
vt 0.230853 0.068613
vt 0.189460 0.902060
vt 0.189447 0.068614
vt 0.148053 0.902061
vt 0.148041 0.068614
vt 0.106647 0.902061
vt 0.106635 0.068615
vt 0.065241 0.902062
vt 0.065228 0.068616
vt 0.934772 0.902049
vt 0.934759 0.068603
vn 0.955573 0.000000 -0.294755
vn 0.826239 0.000000 -0.563320
vn 0.826239 0.000000 -0.563320
vn 0.955573 0.000000 -0.294755
vn 0.623490 0.000000 -0.781831
vn 0.623490 0.000000 -0.781831
vn 0.365341 0.000000 -0.930874
vn 0.365341 0.000000 -0.930874
vn 0.074730 0.000000 -0.997204
vn 0.074730 0.000000 -0.997204
vn -0.222521 0.000000 -0.974928
vn -0.222521 0.000000 -0.974928
vn -0.500000 0.000000 -0.866026
vn -0.500000 0.000000 -0.866026
vn -0.733052 0.000000 -0.680173
vn -0.733052 0.000000 -0.680173
vn -0.900969 0.000000 -0.433884
vn -0.900969 0.000000 -0.433884
vn -0.988831 0.000000 -0.149043
vn -0.988831 0.000000 -0.149043
vn -0.988831 0.000000 0.149042
vn -0.988831 0.000000 0.149042
vn -0.900969 0.000000 0.433883
vn -0.900969 0.000000 0.433883
vn -0.733052 0.000000 0.680173
vn -0.733052 0.000000 0.680173
vn -0.500000 0.000000 0.866025
vn -0.500000 0.000000 0.866025
vn -0.222521 0.000000 0.974928
vn -0.222521 0.000000 0.974928
vn 0.074730 0.000000 0.997204
vn 0.074730 0.000000 0.997204
vn 0.365341 0.000000 0.930874
vn 0.365341 0.000000 0.930874
vn 0.623490 0.000000 0.781832
vn 0.623490 0.000000 0.781832
vn 0.826239 0.000000 0.563320
vn 0.826239 0.000000 0.563320
vn 0.955573 0.000000 0.294755
vn 0.955573 0.000000 0.294755
vn 1.000000 0.000000 0.000000
vn 1.000000 0.000000 0.000000
s 1
g GODRAY2
usemtl GODRAY_initialShadingGroup
f 1/1/1 2/2/2 23/3/3 22/4/4
f 2/2/2 3/5/5 24/6/6 23/3/3
f 3/5/5 4/7/7 25/8/8 24/6/6
f 4/7/7 5/9/9 26/10/10 25/8/8
f 5/9/9 6/11/11 27/12/12 26/10/10
f 6/11/11 7/13/13 28/14/14 27/12/12
f 7/13/13 8/15/15 29/16/16 28/14/14
f 8/15/15 9/17/17 30/18/18 29/16/16
f 9/17/17 10/19/19 31/20/20 30/18/18
f 10/19/19 11/21/21 32/22/22 31/20/20
f 11/21/21 12/23/23 33/24/24 32/22/22
f 12/23/23 13/25/25 34/26/26 33/24/24
f 13/25/25 14/27/27 35/28/28 34/26/26
f 14/27/27 15/29/29 36/30/30 35/28/28
f 15/29/29 16/31/31 37/32/32 36/30/30
f 16/31/31 17/33/33 38/34/34 37/32/32
f 17/33/33 18/35/35 39/36/36 38/34/34
f 18/35/35 19/37/37 40/38/38 39/36/36
f 19/37/37 20/39/39 41/40/40 40/38/38
f 20/39/39 21/41/41 42/42/42 41/40/40
f 21/43/41 1/1/1 22/4/4 42/44/42
